<svg width="36" height="32" viewBox="0 0 36 32" fill="none" xmlns="http://www.w3.org/2000/svg">
<path d="M18 29.25C27.9422 29.25 36 22.7039 36 14.625C36 6.54609 27.9422 0 18 0C8.0578 0 -9.10996e-06 6.54609 -9.10996e-06 14.625C-9.10996e-06 17.7961 1.24452 20.7281 3.3539 23.1258C3.2203 24.8484 2.55233 26.3812 1.84921 27.5484C1.46249 28.1953 1.06874 28.7156 0.78046 29.0672C0.632803 29.243 0.520303 29.3766 0.435928 29.468C0.393741 29.5102 0.365616 29.5453 0.344522 29.5664L0.323428 29.5875C-9.10833e-06 29.9109 -0.0914154 30.3891 0.0843659 30.8109C0.260147 31.2328 0.66796 31.507 1.12499 31.507C3.14296 31.507 5.17499 30.8812 6.86249 30.15C8.47265 29.4469 9.84374 28.6102 10.6805 27.9984C12.9164 28.807 15.3914 29.257 18 29.257V29.25ZM8.99999 12.375C9.59673 12.375 10.169 12.6121 10.591 13.034C11.0129 13.456 11.25 14.0283 11.25 14.625C11.25 15.2217 11.0129 15.794 10.591 16.216C10.169 16.6379 9.59673 16.875 8.99999 16.875C8.40325 16.875 7.83096 16.6379 7.409 16.216C6.98704 15.794 6.74999 15.2217 6.74999 14.625C6.74999 14.0283 6.98704 13.456 7.409 13.034C7.83096 12.6121 8.40325 12.375 8.99999 12.375ZM18 12.375C18.5967 12.375 19.169 12.6121 19.591 13.034C20.0129 13.456 20.25 14.0283 20.25 14.625C20.25 15.2217 20.0129 15.794 19.591 16.216C19.169 16.6379 18.5967 16.875 18 16.875C17.4033 16.875 16.831 16.6379 16.409 16.216C15.987 15.794 15.75 15.2217 15.75 14.625C15.75 14.0283 15.987 13.456 16.409 13.034C16.831 12.6121 17.4033 12.375 18 12.375ZM24.75 14.625C24.75 14.0283 24.987 13.456 25.409 13.034C25.831 12.6121 26.4033 12.375 27 12.375C27.5967 12.375 28.169 12.6121 28.591 13.034C29.0129 13.456 29.25 14.0283 29.25 14.625C29.25 15.2217 29.0129 15.794 28.591 16.216C28.169 16.6379 27.5967 16.875 27 16.875C26.4033 16.875 25.831 16.6379 25.409 16.216C24.987 15.794 24.75 15.2217 24.75 14.625Z" fill="#9CA3AF"/>
</svg>
