<svg width="20" height="18" viewBox="0 0 20 18" fill="none" xmlns="http://www.w3.org/2000/svg">
<path d="M17.5 1.875C17.8438 1.875 18.125 2.15625 18.125 2.5V14.9922L17.9297 14.7383L12.6172 7.86328C12.4414 7.63281 12.1641 7.5 11.875 7.5C11.5859 7.5 11.3125 7.63281 11.1328 7.86328L7.89062 12.0586L6.69922 10.3906C6.52344 10.1445 6.24219 10 5.9375 10C5.63281 10 5.35156 10.1445 5.17578 10.3945L2.05078 14.7695L1.875 15.0117V15V2.5C1.875 2.15625 2.15625 1.875 2.5 1.875H17.5ZM2.5 0C1.12109 0 0 1.12109 0 2.5V15C0 16.3789 1.12109 17.5 2.5 17.5H17.5C18.8789 17.5 20 16.3789 20 15V2.5C20 1.12109 18.8789 0 17.5 0H2.5ZM5.625 7.5C5.87123 7.5 6.11505 7.4515 6.34253 7.35727C6.57002 7.26305 6.77672 7.12494 6.95083 6.95083C7.12494 6.77672 7.26305 6.57002 7.35727 6.34253C7.4515 6.11505 7.5 5.87123 7.5 5.625C7.5 5.37877 7.4515 5.13495 7.35727 4.90747C7.26305 4.67998 7.12494 4.47328 6.95083 4.29917C6.77672 4.12506 6.57002 3.98695 6.34253 3.89273C6.11505 3.7985 5.87123 3.75 5.625 3.75C5.37877 3.75 5.13495 3.7985 4.90747 3.89273C4.67998 3.98695 4.47328 4.12506 4.29917 4.29917C4.12506 4.47328 3.98695 4.67998 3.89273 4.90747C3.7985 5.13495 3.75 5.37877 3.75 5.625C3.75 5.87123 3.7985 6.11505 3.89273 6.34253C3.98695 6.57002 4.12506 6.77672 4.29917 6.95083C4.47328 7.12494 4.67998 7.26305 4.90747 7.35727C5.13495 7.4515 5.37877 7.5 5.625 7.5Z" fill="#034EA2"/>
</svg>
