<svg width="14" height="12" viewBox="0 0 14 12" fill="none" xmlns="http://www.w3.org/2000/svg">
<path d="M1.30156 7.0615L6.24258 11.6744C6.44766 11.8658 6.71836 11.9724 7 11.9724C7.28164 11.9724 7.55234 11.8658 7.75742 11.6744L12.6984 7.0615C13.5297 6.28767 14 5.20212 14 4.06736V3.90876C14 1.99744 12.6191 0.367749 10.7352 0.0532958C9.48828 -0.154517 8.21953 0.252905 7.32812 1.14431L7 1.47244L6.67188 1.14431C5.78047 0.252905 4.51172 -0.154517 3.26484 0.0532958C1.38086 0.367749 0 1.99744 0 3.90876V4.06736C0 5.20212 0.470312 6.28767 1.30156 7.0615Z" fill="#6B7280"/>
</svg>
