<svg width="20" height="18" viewBox="0 0 20 18" fill="none" xmlns="http://www.w3.org/2000/svg">
<path d="M20 8.125C20 12.6133 15.5234 16.25 10 16.25C8.55078 16.25 7.17578 16 5.93359 15.5508C5.46875 15.8906 4.71094 16.3555 3.8125 16.7461C2.875 17.1523 1.74609 17.5 0.624999 17.5C0.371092 17.5 0.14453 17.3477 0.0468737 17.1133C-0.0507825 16.8789 0.00390498 16.6133 0.179686 16.4336L0.191405 16.4219C0.203124 16.4102 0.218749 16.3945 0.242186 16.3672C0.285155 16.3203 0.351561 16.2461 0.433592 16.1445C0.593749 15.9492 0.808592 15.6602 1.02734 15.3008C1.41797 14.6523 1.78906 13.8008 1.86328 12.8438C0.691405 11.5156 -1.26555e-06 9.88672 -1.26555e-06 8.125C-1.26555e-06 3.63672 4.47656 0 10 0C15.5234 0 20 3.63672 20 8.125Z" fill="#374151"/>
</svg>
