<svg width="30" height="30" viewBox="0 0 30 30" fill="none" xmlns="http://www.w3.org/2000/svg">
<path d="M20.3144 0.351562C19.7812 0.996094 18.75 2.47852 18.75 4.21875C18.75 6.5625 19.6465 7.45898 21.0937 8.90625C22.541 10.3535 23.4375 11.25 25.7812 11.25C27.5215 11.25 29.0039 10.2188 29.6484 9.68555C29.8828 9.49219 30 9.20508 30 8.90625C30 8.60742 29.8828 8.32031 29.6484 8.13281C28.9805 7.59961 27.4043 6.5625 25.3125 6.5625C23.4375 6.5625 22.9687 7.03125 22.9687 7.03125C22.9687 7.03125 23.4375 6.5625 23.4375 4.6875C23.4375 2.5957 22.4004 1.01953 21.8672 0.351562C21.6797 0.117188 21.3926 0 21.0937 0C20.7949 0 20.5078 0.117188 20.3144 0.351562ZM14.332 7.96875C11.9883 7.96875 9.81444 9.0293 8.37303 10.793L11.918 14.3379C12.2812 14.7012 12.2812 15.2988 11.918 15.6621C11.5547 16.0254 10.957 16.0254 10.5937 15.6621L7.3535 12.4219V12.4277L0.128892 28.002C-0.117202 28.5352 -0.00587367 29.168 0.410142 29.5898C0.826158 30.0117 1.45897 30.1172 1.99803 29.8711L9.89061 26.2148L6.83788 23.1621C6.4746 22.7988 6.4746 22.2012 6.83788 21.8379C7.20116 21.4746 7.79881 21.4746 8.1621 21.8379L11.7012 25.3711L17.5723 22.6523C20.291 21.3926 22.0371 18.668 22.0371 15.668C22.0312 11.4141 18.5859 7.96875 14.332 7.96875Z" fill="#034EA2"/>
</svg>
