<svg width="172" height="157" viewBox="0 0 172 157" fill="none" xmlns="http://www.w3.org/2000/svg">
<path d="M123.392 16.7109H146L104.5 156.711H83L123.392 16.7109Z" fill="#4C65E2"/>
<path d="M59.6077 16.7109H41L73.5 156.711H100L59.6077 16.7109Z" fill="#4C65E2"/>
<path d="M40.3923 16.7109H59L22.5 156.711H0L40.3923 16.7109Z" fill="#4C65E2"/>
<path d="M124.499 16.7118L117.499 40.5L163.499 40.5L170.999 16.7118L147.999 16.7118L124.499 16.7118Z" fill="#4C65E2"/>
<path d="M60.4301 87.3405C61.3661 84.4545 64.0547 82.5 67.0887 82.5H83.5L59 156.5H38L60.4301 87.3405Z" fill="#7EA5F3"/>
<path d="M66.6364 82.5014C63.8383 82.5014 61.4264 84.3019 60.5547 87.0415L54.9989 104.501L135.499 104.501L142.499 82.5015L66.6364 82.5014Z" fill="#7EA5F3"/>
</svg>
